<svg width="100%" height="100%" viewBox="8 8 20 22" fill="none" xmlns="http://www.w3.org/2000/svg">
<path d="M26 16V26C26 26.5304 25.7893 27.0391 25.4142 27.4142C25.0391 27.7893 24.5304 28 24 28H12C11.4696 28 10.9609 27.7893 10.5858 27.4142C10.2107 27.0391 10 26.5304 10 26V12C10 11.4696 10.2107 10.9609 10.5858 10.5858C10.9609 10.2107 11.4696 10 12 10H20M26 16V15.828C25.9999 15.2976 25.7891 14.789 25.414 14.414L21.586 10.586C21.211 10.2109 20.7024 10.0001 20.172 10H20M26 16H22C21.4696 16 20.9609 15.7893 20.5858 15.4142C20.2107 15.0391 20 14.5304 20 14V10" stroke="black" stroke-width="2" stroke-linecap="round" stroke-linejoin="round"/>
</svg>
