<svg width="100%" height="100%" viewBox="19 19 22 22" fill="none" xmlns="http://www.w3.org/2000/svg">
<path d="M34.149 25.8474C34.1549 26.0332 34.1234 26.2183 34.0564 26.3916C33.9893 26.565 33.8881 26.7231 33.7588 26.8566C33.6295 26.9901 33.4746 27.0963 33.3035 27.1688C33.1324 27.2412 32.9484 27.2786 32.7626 27.2786C32.5767 27.2786 32.3927 27.2412 32.2216 27.1688C32.0505 27.0963 31.8956 26.9901 31.7663 26.8566C31.637 26.7231 31.5358 26.565 31.4688 26.3916C31.4017 26.2183 31.3702 26.0332 31.3761 25.8474C31.3875 25.4872 31.5385 25.1456 31.7973 24.8949C32.0561 24.6441 32.4022 24.5039 32.7626 24.5039C33.1229 24.5039 33.469 24.6441 33.7278 24.8949C33.9866 25.1456 34.1377 25.4872 34.149 25.8474ZM21 24.4615C21 23.5434 21.3646 22.663 22.0137 22.0138C22.6628 21.3647 23.5431 21 24.461 21H34.149C35.0669 21 35.9473 21.3647 36.5963 22.0138C37.2454 22.663 37.61 23.5434 37.61 24.4615V26.6186C37.155 26.5185 36.6848 26.5077 36.2256 26.5868V24.4615C36.2256 23.9106 36.0069 23.3824 35.6174 22.9929C35.228 22.6034 34.6998 22.3846 34.149 22.3846H24.461C23.9103 22.3846 23.3821 22.6034 22.9926 22.9929C22.6032 23.3824 22.3844 23.9106 22.3844 24.4615V34.1508C22.3844 34.472 22.4564 34.7752 22.5865 35.0466L27.641 29.9915C28.0823 29.5501 28.6809 29.3022 29.305 29.3022C29.9291 29.3022 30.5277 29.5501 30.9691 29.9915L31.4398 30.4622L30.4624 31.4411L29.9903 30.9704C29.9003 30.8804 29.7935 30.809 29.6759 30.7603C29.5583 30.7115 29.4323 30.6865 29.305 30.6865C29.1777 30.6865 29.0517 30.7115 28.9341 30.7603C28.8166 30.809 28.7097 30.8804 28.6197 30.9704L23.5653 36.0241C23.8366 36.1543 24.1398 36.2276 24.461 36.2276H26.9474L26.6013 37.6122H24.461C23.5431 37.6122 22.6628 37.2475 22.0137 36.5984C21.3646 35.9492 21 35.0688 21 34.1508V24.4615ZM36.5925 27.9326C36.107 27.9878 35.6546 28.206 35.3092 28.5515L29.3756 34.4886C28.8957 34.9706 28.551 35.5703 28.3761 36.2276L28.3636 36.2733L27.9442 37.9501C27.9087 38.0916 27.9105 38.24 27.9494 38.3806C27.9883 38.5213 28.063 38.6494 28.1662 38.7526C28.2693 38.8558 28.3975 38.9305 28.5381 38.9694C28.6788 39.0083 28.8271 39.0101 28.9686 38.9747L30.6437 38.5551C31.319 38.3848 31.9359 38.0356 32.4296 37.5444L38.3659 31.6073C38.6833 31.2905 38.8942 30.8828 38.9694 30.4407C39.0446 29.9986 38.9804 29.5441 38.7856 29.1402C38.5908 28.7362 38.2751 28.403 37.8824 28.1866C37.4897 27.9702 37.0393 27.8814 36.5939 27.9326" fill="black"/>
</svg>
