<svg width="100%" height="100%" viewBox="0 0 20 20" fill="none" xmlns="http://www.w3.org/2000/svg">
<path d="M1 4.6C1 3.64522 1.37928 2.72955 2.05442 2.05442C2.72955 1.37928 3.64522 1 4.6 1H15.4C16.3548 1 17.2705 1.37928 17.9456 2.05442C18.6207 2.72955 19 3.64522 19 4.6V15.4C19 16.3548 18.6207 17.2705 17.9456 17.9456C17.2705 18.6207 16.3548 19 15.4 19H4.6C3.64522 19 2.72955 18.6207 2.05442 17.9456C1.37928 17.2705 1 16.3548 1 15.4V4.6Z" stroke="black" stroke-width="2" stroke-linecap="round" stroke-linejoin="round"/>
<path d="M6.85 9.1C8.09264 9.1 9.1 8.09264 9.1 6.85C9.1 5.60736 8.09264 4.6 6.85 4.6C5.60736 4.6 4.6 5.60736 4.6 6.85C4.6 8.09264 5.60736 9.1 6.85 9.1Z" stroke="black" stroke-width="2" stroke-linecap="round" stroke-linejoin="round"/>
<path d="M12.2734 10.5589L4.6 19H15.5197C16.4427 19 17.328 18.6334 17.9806 17.9807C18.6333 17.328 19 16.4428 19 15.5197V15.4C19 14.9806 18.8425 14.8195 18.559 14.509L14.932 10.5535C14.763 10.3692 14.5573 10.222 14.3283 10.1215C14.0992 10.021 13.8517 9.96939 13.6015 9.9699C13.3514 9.97041 13.1041 10.0231 12.8754 10.1245C12.6467 10.2259 12.4417 10.3739 12.2734 10.5589Z" stroke="black" stroke-width="2" stroke-linecap="round" stroke-linejoin="round"/>
</svg>
