<svg width="100%" height="100%" viewBox="0 0 18 18" fill="none" xmlns="http://www.w3.org/2000/svg">
<path d="M15.4286 9.42857V1.71429C15.4286 0.771429 14.6571 0 13.7143 0H1.71429C0.771429 0 0 0.771429 0 1.71429V13.7143C0 14.6571 0.771429 15.4286 1.71429 15.4286H9.42857V13.7143H1.71429V12.3514L4.28571 9.78L5.39143 10.8857C5.72571 11.22 6.26571 11.22 6.6 10.8857L11.1343 6.35143L13.7057 8.92286V9.42857H15.42H15.4286ZM11.7514 4.53429C11.6721 4.45483 11.5779 4.39178 11.4742 4.34877C11.3706 4.30576 11.2594 4.28362 11.1471 4.28362C11.0349 4.28362 10.9237 4.30576 10.82 4.34877C10.7163 4.39178 10.6222 4.45483 10.5429 4.53429L6.00857 9.06857L4.90286 7.96286C4.82356 7.8834 4.72937 7.82036 4.62568 7.77734C4.52199 7.73433 4.41083 7.71219 4.29857 7.71219C4.18631 7.71219 4.07516 7.73433 3.97146 7.77734C3.86777 7.82036 3.77358 7.8834 3.69429 7.96286L1.73143 9.92571V1.71429H13.7314V6.50571L11.7686 4.54286L11.7514 4.53429Z" fill="black"/>
<path d="M4.71429 3.42857C4.37329 3.42857 4.04627 3.56403 3.80515 3.80515C3.56403 4.04627 3.42857 4.37329 3.42857 4.71429C3.42857 5.05528 3.56403 5.38231 3.80515 5.62342C4.04627 5.86454 4.37329 6 4.71429 6C5.05528 6 5.38231 5.86454 5.62342 5.62342C5.86454 5.38231 6 5.05528 6 4.71429C6 4.37329 5.86454 4.04627 5.62342 3.80515C5.38231 3.56403 5.05528 3.42857 4.71429 3.42857ZM15.4286 11.1429H13.7143V13.7143H11.1429V15.4286H13.7143V18H15.4286V15.4286H18V13.7143H15.4286V11.1429Z" fill="black"/>
</svg>
